<svg width="162" height="222" viewBox="0 0 162 222" fill="none" xmlns="http://www.w3.org/2000/svg">
<path d="M10.76 0.609985C4.81001 0.609985 0 5.43 0 11.37V148.06V210.72C0 216.67 4.82001 221.48 10.76 221.48H34.79C38.88 221.48 42.62 219.16 44.43 215.5L74.9 154.05C76.72 150.39 80.45 148.07 84.54 148.07H150.69C156.64 148.07 161.45 143.25 161.45 137.31V11.38C161.45 5.43001 156.63 0.619995 150.69 0.619995H10.76V0.609985Z" fill="#EEEEEE"/>
<path d="M10.76 0.609985H150.7C156.65 0.609985 161.46 5.43 161.46 11.37V111.2H0V11.37C0 5.43 4.82001 0.609985 10.76 0.609985Z" fill="#02B866"/>
<path d="M10.76 0.609985H150.7C156.65 0.609985 161.46 5.43 161.46 11.37V74.33H0V11.37C0 5.43 4.82001 0.609985 10.76 0.609985Z" fill="#FFE228"/>
<path d="M10.76 0.609985H150.7C156.65 0.609985 161.46 5.43 161.46 11.37V37.47H0V11.37C0 5.43 4.82001 0.609985 10.76 0.609985Z" fill="#99F0FA"/>
</svg>
